<svg height="395pt" viewBox="-6 0 395 395.94096" width="395pt" xmlns="http://www.w3.org/2000/svg"><path d="m167.984375 15.179688c-78.488281 10.136718-141.898437 73.375-152.25 151.835937-6.914063 52.410156 9.097656 101.09375 39.363281 137.5l-13.652344 77.773437 74.863282-30.605468c29.488281 13.863281 63.246094 20.140625 98.984375 15.367187 79.769531-10.640625 143.789062-75.558593 152.695312-155.542969 12.8125-115.097656-84.554687-211.238281-200.003906-196.328124zm0 0" fill="#2ee52b"/><g fill="#5c128d"><path d="m41.445312 395.941406c-3.066406 0-6.101562-1.027344-8.566406-3.027344-3.875-3.117187-5.742187-8.09375-4.882812-12.984374l12.582031-71.679688c-31.613281-40.640625-45.21875-91.175781-38.378906-143.027344 11.070312-83.945312 80.066406-152.746094 164.039062-163.589844 59.113281-7.640624 117.207031 11.75 159.351563 53.160157 42.152344 41.414062 62.546875 99.082031 55.96875 158.226562-9.535156 85.65625-78.699219 156.121094-164.453125 167.5625-34.386719 4.574219-69.171875-.253906-101.054688-14.042969l-69.441406 28.386719c-1.664063.683594-3.417969 1.015625-5.164063 1.015625zm128.285157-367.214844c-71.90625 9.28125-130.980469 68.1875-140.464844 140.066407-6.113281 46.359375 6.785156 91.46875 36.332031 126.988281 2.558594 3.089844 3.640625 7.144531 2.949219 11.09375l-9.382813 53.410156 51.980469-21.238281c3.546875-1.441406 7.519531-1.347656 10.972657.28125 28.617187 13.425781 60.214843 18.332031 91.375 14.183594 73.492187-9.796875 132.761718-70.15625 140.933593-143.503907 5.648438-50.761718-11.839843-100.242187-47.972656-135.734374-36.128906-35.503907-85.980469-52.117188-136.722656-45.546876zm-1.746094-13.542968h.132813zm0 0"/><path d="m218.9375 236.652344c-30.464844-12.203125-55.183594-35.476563-69.199219-65.152344l-3.617187-7.664062 18.289062-18.289063c2.464844-2.46875 2.464844-6.46875 0-8.9375l-27.171875-27.167969c-2.703125-2.703125-7.179687-2.402344-9.535156.609375-24.371094 31.199219-14.96875 84.113281 22.964844 122.046875 37.9375 37.9375 90.851562 47.339844 122.050781 22.96875 3.011719-2.355468 3.3125-6.832031.609375-9.539062l-27.171875-27.167969c-2.464844-2.464844-6.464844-2.464844-8.933594 0zm0 0"/></g></svg>